<?xml version="1.0" encoding="UTF-8" standalone="no"?>
<!-- Generator: Adobe Illustrator 19.2.1, SVG Export Plug-In . SVG Version: 6.00 Build 0)  -->

<svg
   xmlns:dc="http://purl.org/dc/elements/1.1/"
   xmlns:cc="http://creativecommons.org/ns#"
   xmlns:rdf="http://www.w3.org/1999/02/22-rdf-syntax-ns#"
   xmlns:svg="http://www.w3.org/2000/svg"
   xmlns="http://www.w3.org/2000/svg"
   xmlns:sodipodi="http://sodipodi.sourceforge.net/DTD/sodipodi-0.dtd"
   xmlns:inkscape="http://www.inkscape.org/namespaces/inkscape"
   version="1.1"
   id="svg4619"
   inkscape:version="0.92.0 r"
   sodipodi:docname="hospital-15.svg"
   x="0px"
   y="0px"
   width="16"
   height="16"
   viewBox="0 0 15 15"
   xml:space="preserve"
   inkscape:export-filename="/home/simon/efl_src/enotes/data/themes/default/images/new.png"
   inkscape:export-xdpi="200"
   inkscape:export-ydpi="200"><metadata
     id="metadata4662"><rdf:RDF><cc:Work
         rdf:about=""><dc:format>image/svg+xml</dc:format><dc:type
           rdf:resource="http://purl.org/dc/dcmitype/StillImage" /><dc:title></dc:title></cc:Work></rdf:RDF></metadata><defs
     id="defs4660" /><sodipodi:namedview
     pagecolor="#ffffff"
     bordercolor="#666666"
     borderopacity="1"
     objecttolerance="10"
     gridtolerance="10"
     guidetolerance="10"
     inkscape:pageopacity="0"
     inkscape:pageshadow="2"
     inkscape:window-width="640"
     inkscape:window-height="480"
     id="namedview4658"
     showgrid="false"
     inkscape:zoom="23.28125"
     inkscape:cx="10.527418"
     inkscape:cy="10.95516"
     inkscape:current-layer="svg4619" /><path
     id="rect4194"
     inkscape:connector-curvature="0"
     style="fill:#010101;stroke-width:0.78936499"
     d="m 0.37919335,-9.3736002 c -0.334899,-0.3348992 -0.781431,-0.3348992 -1.1163304,0 L -2.9697987,-7.1409386 -5.2024601,-9.3736 c -0.3348992,-0.3348992 -0.7814315,-0.3348992 -1.1163307,0 l -0.5581649,0.5581653 c -0.3349,0.3348992 -0.3349,0.7814315 0,1.1163307 l 2.232661,2.2326614 -2.232661,2.2326608 c -0.334899,0.3348989 -0.334899,0.7814319 0,1.1163309 l 0.5581656,0.558165 c 0.3348991,0.334899 0.7814315,0.334899 1.1163307,0 l 2.2326608,-2.2326606 2.23266095,2.2326606 c 0.334899,0.3349 0.781431,0.334899 1.116331,0 l 0.558165,-0.558165 c 0.33489895,-0.334899 0.33489895,-0.781432 0,-1.1163307 L -1.2953026,-5.4664425 0.93735935,-7.6991041 c 0.33489895,-0.3348992 0.33489895,-0.7814316 0,-1.1163307 z" /><path
     inkscape:connector-curvature="0"
     d="M 13.277013,1.7229864 V 13.277013 H 1.7229867 V 1.7229864 H 13.277013 m 0.33329,-1.44425333 H 1.3896975 c -0.6135864,0 -1.11096415,0.49737858 -1.11096415,1.11096413 V 13.610303 c 0,0.613585 0.49737775,1.110964 1.11096415,1.110964 H 13.610303 c 0.613585,0 1.110964,-0.497379 1.110964,-1.110964 V 1.3896972 c 0,-0.61358555 -0.497379,-1.11096413 -1.110964,-1.11096413 z"
     id="path4664"
     style="stroke-width:1.11096418" /><path
     style="stroke-width:0.74453837"
     id="path21090-9"
     inkscape:connector-curvature="0"
     sodipodi:nodetypes="sscsssscss"
     d="m -9.583705,9.0268455 c -0.232705,0 -0.385447,-0.12444 -0.485776,-0.270088 l -4.614785,-6.6984822 c -0.0607,-0.054004 -0.0607,-0.1620109 -0.0607,-0.2700883 0,-0.3781656 0.30359,-0.4861735 0.546478,-0.4861735 h 9.168789 c 0.30359,0 0.546477,0.1080079 0.546477,0.4861735 0,0.1080072 0,0.1620803 -0.0607,0.2700883 l -4.554087,6.6984822 c -0.0993,0.14614 -0.288592,0.270088 -0.485696,0.270088 z" /><path
     style="color:#000000;clip-rule:nonzero;display:inline;overflow:visible;visibility:visible;opacity:1;isolation:auto;mix-blend-mode:normal;color-interpolation:sRGB;color-interpolation-filters:linearRGB;solid-color:#000000;solid-opacity:1;fill:#000000;fill-opacity:1;fill-rule:nonzero;stroke-width:0.9375;color-rendering:auto;image-rendering:auto;shape-rendering:auto;text-rendering:auto;enable-background:accumulate"
     id="path5821"
     d="m 17.850723,-8.7685447 c 0.107469,-0.011879 0.101478,-0.012863 0.226174,-0.017542 0.135873,-0.0051 0.352774,-0.00769 0.479886,-0.00766 2.193962,4.626e-4 1.425153,-0.034422 2.490512,0.022812 0.695096,0.030717 1.389635,0.080276 2.080885,0.1605896 0.356718,0.041445 0.695291,0.092887 1.050193,0.1442895 0.362679,0.065567 0.730676,0.1278412 1.079803,0.2505584 0.120787,0.042457 0.243968,0.095937 0.34496,0.1771894 0.03496,0.028122 0.06194,0.06492 0.09291,0.097381 0.0159,0.039218 0.03828,0.076399 0.0477,0.1176557 0.03191,0.139764 -0.02149,0.2816533 -0.121524,0.381035 -0.117402,0.1166259 -0.225219,0.1520073 -0.373987,0.2246975 -0.456212,0.1708618 -0.941247,0.2383877 -1.418543,0.3222952 -0.539847,0.094904 -0.361159,0.062873 -0.905785,0.166812 -0.598563,0.1281681 -1.211932,0.2512946 -1.765978,0.5228794 -0.05204,0.025512 -0.10111,0.056702 -0.151665,0.085053 -0.0477,0.035805 -0.09922,0.062878 -0.130347,0.1150268 -0.01394,0.02336 0.03585,-0.011641 0.04601,-0.012148 0.0265,-0.00132 0.05244,0.00815 0.07858,0.012637 0.04265,0.00733 0.08521,0.015218 0.127807,0.022828 0.430981,0.063485 0.867998,0.061674 1.301711,0.094752 0.104317,0.00796 0.208337,0.019431 0.312506,0.029147 0.205773,0.035222 0.654951,0.042702 0.814863,0.199892 0.08751,0.086021 0.06881,0.1416445 0.07508,0.2539651 -0.01776,0.048437 -0.0275,0.1006268 -0.05328,0.1453106 -0.10704,0.1854822 -0.309037,0.3095553 -0.483642,0.4198475 -0.179016,0.1130779 -0.306038,0.1815923 -0.491517,0.2862429 -0.361379,0.2172967 -0.763309,0.3764462 -1.08696,0.651542 -0.07698,0.085285 -0.05946,0.105819 0.0049,0.1907413 0.07509,0.099041 0.04595,0.061941 0.132154,0.1619538 0.132948,0.1546251 0.257518,0.3166687 0.393365,0.4688307 0.109685,0.1228575 0.225635,0.2399737 0.338388,0.3600216 0.368519,0.4220922 0.753234,0.8287373 1.150116,1.2240743 0.112456,0.118278 0.257854,0.226025 0.306387,0.389574 0.01228,0.04137 0.01473,0.08826 0.0186,0.1311 0.0027,0.103472 0.04978,0.191702 0.08291,0.286945 0.03916,0.111316 0.06691,0.226282 0.07087,0.344371 -0.0013,0.09388 -0.05515,0.170731 -0.08527,0.255701 -0.0015,0.0094 -0.0029,0.01882 -0.0044,0.02822 0,0 -1.983344,-0.02171 -1.983344,-0.02171 v 0 c 0.0018,-0.02063 0.0037,-0.04124 0.0055,-0.06187 0.01741,-0.07292 0.0388,-0.141295 0.08091,-0.203761 0.01135,-0.09056 -0.02806,-0.183559 -0.05515,-0.268003 -0.04749,-0.109961 -0.08492,-0.221657 -0.09137,-0.342502 -0.0022,-0.02558 -0.0011,-0.05176 -0.0072,-0.0767 -0.0306,-0.124903 -0.143898,-0.217519 -0.20922,-0.322006 -0.352333,-0.421163 -0.706378,-0.8425931 -1.106919,-1.2195759 -0.286938,-0.2702784 -0.579947,-0.5362321 -0.834575,-0.8381101 -0.122386,-0.1505669 -0.284603,-0.3421978 -0.196319,-0.5521371 0.01613,-0.03835 0.04695,-0.068693 0.07043,-0.1030395 0.03812,-0.031689 0.07383,-0.066518 0.114353,-0.095067 0.328774,-0.2316196 0.737236,-0.3654612 1.077412,-0.580391 0.226511,-0.1302424 0.244582,-0.1359939 0.457416,-0.275798 0.156986,-0.1031193 0.325962,-0.2105053 0.427585,-0.3733615 -3.63e-4,-0.00888 0.004,-0.019384 -0.0011,-0.026648 -0.02063,-0.02924 -0.111269,-0.060996 -0.12735,-0.066138 -0.191935,-0.06137 -0.395265,-0.078074 -0.593698,-0.1041942 -0.355026,-0.02977 -0.258273,-0.024631 -0.62592,-0.042846 -0.295748,-0.014653 -0.594704,-0.017485 -0.888249,-0.061009 -0.06982,-0.010352 -0.138489,-0.027352 -0.207734,-0.041028 -0.09927,-0.037074 -0.203132,-0.056103 -0.270171,-0.1486839 -0.02724,-0.037626 -0.0437,-0.084072 -0.04994,-0.1301042 -0.02113,-0.155684 0.112253,-0.2400718 0.224026,-0.3104194 0.06598,-0.032681 0.130194,-0.069189 0.197932,-0.098043 0.160804,-0.068495 0.452742,-0.1639008 0.609908,-0.2124963 0.423992,-0.1310978 0.854285,-0.2406284 1.289601,-0.3272467 0.500252,-0.1015329 0.384056,-0.079428 0.875882,-0.1735386 0.431215,-0.082513 0.867827,-0.1499889 1.284327,-0.2936615 0.09103,-0.038723 0.369354,-0.1402512 0.40222,-0.2600821 0.01218,-0.044405 -0.0097,-0.06148 -0.0316,-0.09685 -0.02227,-0.019787 -0.04273,-0.041807 -0.0668,-0.05936 -0.07963,-0.058076 -0.170872,-0.1022188 -0.261941,-0.1383076 -0.297657,-0.1179559 -0.612519,-0.18497 -0.926375,-0.2424381 -0.40098,-0.063258 -0.586718,-0.096805 -0.998365,-0.1432724 -0.729475,-0.082344 -1.463353,-0.1173641 -2.197006,-0.131967 -0.661304,-0.011697 -1.42228,-0.022825 1.068015,-0.00627 0.07678,5.104e-4 -0.153497,0.00452 -0.230228,0.0073 -0.135589,0.00492 -0.148242,0.00621 -0.267638,0.012863 -0.02035,0.00113 -0.04069,0.00224 -0.06104,0.00337 0,0 -1.970614,-0.283513 -1.970614,-0.283513 z"
     inkscape:connector-curvature="0" /><path
     d="m 12.630872,7.1053176 c 0,-0.4736189 -0.315746,-0.7893647 -0.789365,-0.7893646 l -3.1574598,-1e-7 v -3.15746 c 0,-0.473619 -0.315746,-0.7893652 -0.789365,-0.7893652 l -0.789365,1e-6 c -0.473619,-1e-6 -0.789365,0.3157449 -0.789365,0.7893645 v 3.1574597 l -3.1574593,-1e-7 C 2.6848743,6.3159527 2.3691278,6.6316993 2.3691278,7.105318 l 4e-7,0.7893649 c 10e-8,0.4736188 0.3157462,0.7893649 0.789365,0.789365 l 3.157459,1e-7 v 3.157459 c -1e-6,0.473619 0.315746,0.789365 0.789365,0.789365 h 0.789365 c 0.473618,0 0.789365,-0.315746 0.789365,-0.789365 V 8.684048 h 3.1574598 c 0.473619,-1e-7 0.789365,-0.3157462 0.789365,-0.7893649 z"
     style="fill:#010101;stroke-width:0.78936499"
     inkscape:connector-curvature="0"
     id="path5823" /></svg>