<?xml version="1.0" encoding="UTF-8" standalone="no"?>
<!-- Created with Inkscape (http://www.inkscape.org/) -->

<svg
   xmlns:dc="http://purl.org/dc/elements/1.1/"
   xmlns:cc="http://creativecommons.org/ns#"
   xmlns:rdf="http://www.w3.org/1999/02/22-rdf-syntax-ns#"
   xmlns:svg="http://www.w3.org/2000/svg"
   xmlns="http://www.w3.org/2000/svg"
   xmlns:xlink="http://www.w3.org/1999/xlink"
   xmlns:sodipodi="http://sodipodi.sourceforge.net/DTD/sodipodi-0.dtd"
   xmlns:inkscape="http://www.inkscape.org/namespaces/inkscape"
   width="71.123039mm"
   height="93.298759mm"
   viewBox="0 0 252.01077 330.58615"
   id="svg5287"
   version="1.1"
   inkscape:version="0.92+devel unknown"
   sodipodi:docname="Note.svg"
   inkscape:export-filename="/home/simon/efl_src/enotes/data/desktop/enotes.png"
   inkscape:export-xdpi="90.112663"
   inkscape:export-ydpi="90.112663">
  <defs
     id="defs5289">
    <inkscape:path-effect
       effect="bspline"
       id="path-effect4995"
       is_visible="true"
       weight="33.333333"
       steps="2"
       helper_size="0"
       apply_no_weight="true"
       apply_with_weight="true"
       only_selected="false" />
    <inkscape:path-effect
       effect="simplify"
       id="path-effect4993"
       is_visible="true"
       steps="1"
       threshold="9.90099e-05"
       smooth_angles="360"
       helper_size="0"
       simplify_individual_paths="false"
       simplify_just_coalesce="false"
       simplifyindividualpaths="false"
       simplifyJustCoalesce="false" />
    <inkscape:path-effect
       effect="bspline"
       id="path-effect4989"
       is_visible="true"
       weight="33.333333"
       steps="2"
       helper_size="0"
       apply_no_weight="true"
       apply_with_weight="true"
       only_selected="false" />
    <inkscape:path-effect
       effect="simplify"
       id="path-effect4987"
       is_visible="true"
       steps="1"
       threshold="9.90099e-05"
       smooth_angles="360"
       helper_size="0"
       simplify_individual_paths="false"
       simplify_just_coalesce="false"
       simplifyindividualpaths="false"
       simplifyJustCoalesce="false" />
    <inkscape:path-effect
       effect="bspline"
       id="path-effect4983"
       is_visible="true"
       weight="33.333333"
       steps="2"
       helper_size="0"
       apply_no_weight="true"
       apply_with_weight="true"
       only_selected="false" />
    <inkscape:path-effect
       effect="simplify"
       id="path-effect4981"
       is_visible="true"
       steps="1"
       threshold="9.90099e-05"
       smooth_angles="360"
       helper_size="0"
       simplify_individual_paths="false"
       simplify_just_coalesce="false"
       simplifyindividualpaths="false"
       simplifyJustCoalesce="false" />
    <inkscape:path-effect
       effect="bspline"
       id="path-effect4977"
       is_visible="true"
       weight="33.333333"
       steps="2"
       helper_size="0"
       apply_no_weight="true"
       apply_with_weight="true"
       only_selected="false" />
    <inkscape:path-effect
       effect="simplify"
       id="path-effect4975"
       is_visible="true"
       steps="1"
       threshold="9.90099e-05"
       smooth_angles="360"
       helper_size="0"
       simplify_individual_paths="false"
       simplify_just_coalesce="false"
       simplifyindividualpaths="false"
       simplifyJustCoalesce="false" />
    <inkscape:path-effect
       effect="bspline"
       id="path-effect4971"
       is_visible="true"
       weight="33.333333"
       steps="2"
       helper_size="0"
       apply_no_weight="true"
       apply_with_weight="true"
       only_selected="false" />
    <inkscape:path-effect
       effect="powerstroke"
       id="path-effect4967"
       is_visible="true"
       offset_points="0,0.46874997"
       sort_points="true"
       interpolator_type="CubicBezierJohan"
       interpolator_beta="0.2"
       start_linecap_type="zerowidth"
       linejoin_type="extrp_arc"
       miter_limit="4"
       end_linecap_type="zerowidth" />
    <inkscape:path-effect
       effect="bspline"
       id="path-effect4965"
       is_visible="true"
       weight="33.333333"
       steps="2"
       helper_size="0"
       apply_no_weight="true"
       apply_with_weight="true"
       only_selected="false" />
    <inkscape:path-effect
       effect="bspline"
       id="path-effect4959"
       is_visible="true"
       weight="33.333333"
       steps="2"
       helper_size="0"
       apply_no_weight="true"
       apply_with_weight="true"
       only_selected="false" />
    <inkscape:path-effect
       effect="bspline"
       id="path-effect4955"
       is_visible="true"
       weight="33.333333"
       steps="2"
       helper_size="0"
       apply_no_weight="true"
       apply_with_weight="true"
       only_selected="false" />
    <inkscape:path-effect
       effect="bspline"
       id="path-effect4951"
       is_visible="true"
       weight="33.333333"
       steps="2"
       helper_size="0"
       apply_no_weight="true"
       apply_with_weight="true"
       only_selected="false" />
    <radialGradient
       inkscape:collect="always"
       xlink:href="#linearGradient5922"
       id="radialGradient5928"
       cx="938.91724"
       cy="754.47943"
       fx="938.91724"
       fy="754.47943"
       r="105.66749"
       gradientTransform="matrix(0.86666389,-0.49889247,0.93938423,1.6318755,-1039.9974,-50.574794)"
       gradientUnits="userSpaceOnUse" />
    <linearGradient
       inkscape:collect="always"
       id="linearGradient5922">
      <stop
         id="stop5926"
         offset="0"
         style="stop-color:#729fcf;stop-opacity:0.75694442" />
      <stop
         id="stop5924"
         offset="1"
         style="stop-color:#729fcf;stop-opacity:1;" />
    </linearGradient>
  </defs>
  <sodipodi:namedview
     id="base"
     pagecolor="#ffffff"
     bordercolor="#666666"
     borderopacity="1.0"
     inkscape:pageopacity="0.0"
     inkscape:pageshadow="2"
     inkscape:zoom="1.3422375"
     inkscape:cx="122.80755"
     inkscape:cy="231.86134"
     inkscape:document-units="px"
     inkscape:current-layer="layer1"
     showgrid="false"
     fit-margin-top="5"
     fit-margin-left="5"
     fit-margin-right="5"
     fit-margin-bottom="5"
     inkscape:document-rotation="0"
     inkscape:snap-others="false" />
  <metadata
     id="metadata5292">
    <rdf:RDF>
      <cc:Work
         rdf:about="">
        <dc:format>image/svg+xml</dc:format>
        <dc:type
           rdf:resource="http://purl.org/dc/dcmitype/StillImage" />
        <dc:title />
      </cc:Work>
    </rdf:RDF>
  </metadata>
  <g
     inkscape:label="Ebene 1"
     inkscape:groupmode="layer"
     id="layer1"
     transform="translate(-291.47002,-435.87824)">
    <rect
       style="color:#000000;overflow:visible;opacity:1;fill:#ffff00;fill-opacity:1;stroke:none;stroke-width:0.93749994;stroke-linejoin:round;stroke-miterlimit:4;stroke-dasharray:none;stroke-opacity:1;paint-order:markers stroke fill"
       id="rect4337"
       width="363.52649"
       height="87.260849"
       x="148.2261"
       y="338.61023"
       rx="9.0816565"
       ry="9.0816565" />
    <rect
       ry="0"
       rx="0"
       y="471.72116"
       x="309.68655"
       height="272.07999"
       width="211.33498"
       id="rect20735"
       style="fill:url(#radialGradient5928);fill-opacity:1;stroke:#000000;stroke-width:1;stroke-miterlimit:4;stroke-dasharray:none;stroke-opacity:0" />
    <path
       sodipodi:nodetypes="ccccccccccccccccccc"
       inkscape:connector-curvature="0"
       id="path20979"
       d="m 490.64759,480.61947 -136.46709,8.98086 -7.72071,-3.41945 8.15249,-4.4658 -8.67422,-3.98864 6.4222,-4.05738 -7.36766,-4.21756 6.45754,-3.74808 -7.14692,-4.22999 6.23685,-3.73567 136.46711,-8.98087 -7.04899,4.4039 7.9591,3.56174 -7.36235,4.57714 8.27246,3.3885 -6.55454,4.84315 7.46466,3.12248 -5.84391,4.25845 z"
       style="opacity:1;fill:#4d4d4d;fill-opacity:1;stroke:none;stroke-width:4.15254688;stroke-miterlimit:4;stroke-dasharray:none;stroke-opacity:1" />
    <g
       id="g4455"
       transform="matrix(0.87790249,0,0,1.5132993,49.975774,-329.78425)">
      <path
         inkscape:connector-curvature="0"
         d="m 322.79809,553.51391 c 6.08471,0.63848 12.16956,1.56686 18.29635,1.72553 2.98959,0.0774 5.9921,-0.2249 8.97222,-0.41646 6.77362,-0.19796 13.54737,0.07 20.32203,-0.0151 2.88249,-0.0202 5.765,-0.0448 8.64757,-0.05 1.05687,-0.002 2.11552,0.062 3.17062,8.2e-4 1.82429,-0.10581 3.62699,-0.44936 5.44138,-0.66668 2.72677,-0.41964 5.44505,-0.10171 8.17083,-0.0183 1.02636,0.0314 2.66858,-0.0112 3.70469,-0.0303 2.90388,0.16065 5.85626,-0.25356 8.75721,-0.0212 1.0994,0.088 2.19142,0.25186 3.28713,0.37781 0.83964,0.13235 2.60505,0.44629 3.62467,0.51343 0.78234,0.0516 -0.43643,-0.0303 0.037,-0.0936 0.38351,-0.0513 0.76832,-0.0923 1.15248,-0.1384 0,0 1.1328,12.78511 1.1328,12.78511 v 0 c 0.5254,-0.14378 -0.0566,0.0213 -0.54917,0.0852 -0.50127,0.0651 -1.00346,0.13597 -1.50862,0.15362 -1.92764,0.0673 -3.82118,-0.32115 -5.72468,-0.54925 -0.49911,-0.10354 -0.99051,-0.25631 -1.49735,-0.31063 -0.48045,-0.0515 -0.96639,-0.005 -1.44959,-0.006 -2.42152,-0.005 -4.84095,0.0565 -7.26226,0.0787 -3.45531,-0.0562 -6.91513,-0.40764 -10.36051,-0.13186 -2.46966,0.2936 -4.41572,0.56166 -6.95936,0.67774 -3.92537,0.17914 -7.87339,-0.14334 -11.80076,0.004 -6.5098,-0.0646 -13.02089,-0.24663 -19.53054,-0.11011 -3.50896,0.22545 -7.01669,0.51831 -10.53758,0.41934 -6.30074,-0.17712 -12.56057,-1.0983 -18.8181,-1.76809 0,0 1.2815,-12.49597 1.2815,-12.49597 z"
         id="path4410"
         style="color:#000000;overflow:visible;opacity:1;fill:#ffffff;fill-opacity:1;stroke:none;stroke-width:0.93749994;stroke-linejoin:round;stroke-miterlimit:4;stroke-dasharray:none;stroke-opacity:1;paint-order:markers stroke fill" />
      <path
         inkscape:connector-curvature="0"
         d="m 459.54003,556.63335 c 4.21814,-0.91285 8.53881,-1.21365 12.84725,-1.12928 2.44015,0.0478 4.88166,0.36218 7.32059,0.47476 5.69151,-0.0544 11.38321,-0.10024 17.07497,-0.074 2.2037,0.026 4.40753,0.012 6.61129,0.009 0.87576,0.0562 1.76982,-0.0793 2.64334,9.3e-4 1.35451,0.125 3.16351,0.70879 4.60774,0.23113 1.68674,0.50916 3.37347,1.01832 5.06021,1.52748 0,0 -7.96445,9.71387 -7.96445,9.71387 v 0 c 1.55246,0.39908 3.10492,0.79815 4.65739,1.19723 -2.29137,0.25457 -2.44596,0.36553 -5.00934,0.16267 -0.46024,-0.0364 -0.89915,-0.22272 -1.35832,-0.27085 -0.86384,-0.0906 -1.75391,0.0607 -2.62074,-9.4e-4 -2.22846,0.003 -4.45699,0.0168 -6.68538,-0.009 -5.81165,-0.0271 -11.61748,0.15981 -17.42872,0.11666 -0.98538,-0.0222 -1.97164,-0.0195 -2.95614,-0.0667 -2.32849,-0.11136 -4.61453,-0.46208 -6.95901,-0.35561 -1.12212,0.051 -2.23979,0.1869 -3.35282,0.33839 -1.22475,0.16671 -2.43778,0.41045 -3.65667,0.61567 0,0 -2.83119,-12.48136 -2.83119,-12.48136 z"
         id="path4412"
         style="color:#000000;overflow:visible;opacity:1;fill:#ffffff;fill-opacity:1;stroke:none;stroke-width:0.93749994;stroke-linejoin:round;stroke-miterlimit:4;stroke-dasharray:none;stroke-opacity:1;paint-order:markers stroke fill" />
      <path
         inkscape:connector-curvature="0"
         d="m 510.16633,591.67161 c -4.34228,1.32081 -8.75035,2.2642 -13.29792,2.47099 -1.82762,0.0831 -3.65922,-1.2e-4 -5.48844,-0.0331 -2.88145,-0.052 -7.38012,-0.23254 -10.35667,-0.34397 -4.86497,-0.0115 -9.76015,-0.20873 -14.62287,0.0228 -4.03878,0.19225 -3.18046,0.4479 -6.68526,0.73345 -1.31636,0.10725 -2.63773,0.14027 -3.9566,0.21039 -4.07656,0.0743 -8.14527,-0.28007 -12.22074,-0.2616 -1.96587,0.009 -3.93117,0.0723 -5.89698,0.0892 -1.14665,0.0386 -2.29274,0.0285 -3.43951,0.0206 0,0 0.0925,-13.163 0.0925,-13.163 v 0 c 1.70804,0.0122 1.09318,0.0187 3.23455,-0.0204 5.87079,-0.0498 11.73309,0.22884 17.60194,0.25478 1.00603,-0.0415 2.01454,-0.0427 3.01811,-0.1246 5.85143,-0.477 0.5788,-0.45598 8.13467,-0.75744 5.07848,-0.20261 10.17335,0.0253 15.25192,0.0757 3.30929,0.13831 6.61631,0.33871 9.92725,0.42924 1.68123,0.0459 6.19781,0.0892 8.05186,-0.12929 0.51566,-0.0607 4.69802,-0.94069 5.65533,-1.14015 0,0 4.99686,11.66651 4.99686,11.66651 z"
         id="path4414"
         style="color:#000000;overflow:visible;opacity:1;fill:#ffffff;fill-opacity:1;stroke:none;stroke-width:0.93749994;stroke-linejoin:round;stroke-miterlimit:4;stroke-dasharray:none;stroke-opacity:1;paint-order:markers stroke fill" />
      <path
         inkscape:connector-curvature="0"
         d="m 419.31233,593.00758 c -6.52192,0.94644 -6.4884,1.09723 -12.65638,1.45295 -0.97771,0.0564 -1.96021,0.11429 -2.93758,0.0519 -1.98483,-0.1267 -1.99867,-0.3728 -3.48941,-0.59202 -1.00342,-0.14757 -2.01102,-0.26521 -3.01653,-0.39782 -6.01292,-0.12416 -11.9998,0.80101 -18.0092,0.47921 -0.45873,-0.0107 -0.91746,-0.0214 -1.37619,-0.0321 0,0 0.54599,-12.87601 0.54599,-12.87601 v 0 c 0.43888,0.0274 0.87777,0.0548 1.31665,0.0821 6.42592,0.10466 12.82374,-0.86009 19.25557,-0.54845 1.26046,0.17189 2.52387,0.32334 3.78138,0.51566 0.47024,0.0719 0.95147,0.1184 1.40004,0.27679 0.13039,0.046 -0.54603,0.0611 -0.4083,0.0734 4.4628,0.39955 8.92105,-1.05022 13.33276,-1.3218 0,0 2.2612,12.83615 2.2612,12.83615 z"
         id="path4416"
         style="color:#000000;overflow:visible;opacity:1;fill:#ffffff;fill-opacity:1;stroke:none;stroke-width:0.93749994;stroke-linejoin:round;stroke-miterlimit:4;stroke-dasharray:none;stroke-opacity:1;paint-order:markers stroke fill" />
      <path
         inkscape:connector-curvature="0"
         d="m 353.20134,594.14575 c -5.78805,0.68925 -11.58992,0.62696 -17.39259,0.21009 -2.76609,-0.19872 -5.51996,-0.67112 -8.29593,-0.71122 -0.4146,0.13293 0.31947,0.005 0.24239,0.0308 -1.14979,0.39213 -2.50305,0.23288 -3.69662,0.18285 -0.41732,-0.0191 -0.83497,-0.0139 -1.25246,-0.008 0,0 -0.14451,-12.56068 -0.14451,-12.56068 v 0 c 0.64167,-0.007 1.28354,-0.0104 1.92485,0.0184 0.28819,0.0122 1.43222,-0.0816 0.2827,0.1318 -0.2902,0.0539 3.58444,-0.5652 2.98631,-0.3519 2.91044,0.10069 5.76667,0.50057 8.6699,0.72701 5.15516,0.40208 5.85667,0.42716 11.10412,0.1798 1.3135,-0.0619 2.62214,-0.20202 3.93321,-0.30301 0,0 1.63863,12.45418 1.63863,12.45418 z"
         id="path4418"
         style="color:#000000;overflow:visible;opacity:1;fill:#ffffff;fill-opacity:1;stroke:none;stroke-width:0.93749994;stroke-linejoin:round;stroke-miterlimit:4;stroke-dasharray:none;stroke-opacity:1;paint-order:markers stroke fill" />
      <path
         inkscape:connector-curvature="0"
         d="m 329.15349,609.48892 c 8.13388,0.4634 16.19133,-1.12007 24.31302,-0.7831 5.36978,0.17184 10.7386,-3.7e-4 16.10754,-0.0422 1.3702,-0.042 2.74084,-0.0351 4.11133,-0.0266 0.21046,9.4e-4 0.83722,-0.0413 0.63138,0.003 -2.92176,0.62263 -2.7827,0.62427 -1.7037,0.0586 1.97828,-0.70928 1.8895,-0.84228 4.13679,-0.90241 4.54966,-0.12173 0.28436,0.12533 1.98539,0.20604 0.66791,0.0317 1.33738,-0.0149 2.00599,-0.006 1.31907,-0.0564 2.6392,-0.068 3.9591,-0.0874 0,0 0.19115,13.00972 0.19115,13.00972 v 0 c -1.38373,0.0203 -2.76745,0.0573 -4.15142,0.0173 -1.15052,0.0109 -3.3377,0.13464 -4.52262,-0.18954 -0.1764,-0.0483 0.36713,-0.002 0.54784,-0.0297 1.22717,-0.1908 0.93727,-0.11587 1.82698,-0.56434 -3.30333,1.71914 -5.52351,1.42216 -8.95384,1.34697 -5.54403,0.012 -11.09158,0.0474 -16.63185,-0.19047 -1.31947,-0.0401 -2.63797,-0.1751 -3.95766,-0.14295 -2.25504,0.0549 -4.4947,0.39259 -6.74578,0.53716 -7.18647,0.46153 -6.01156,0.34802 -13.14964,0.34802 0,0 0,-12.56151 0,-12.56151 z"
         id="path4420"
         style="color:#000000;overflow:visible;opacity:1;fill:#ffffff;fill-opacity:1;stroke:none;stroke-width:0.93749994;stroke-linejoin:round;stroke-miterlimit:4;stroke-dasharray:none;stroke-opacity:1;paint-order:markers stroke fill" />
      <path
         inkscape:connector-curvature="0"
         d="m 416.62598,609.39011 c 5.55957,0.0418 11.11836,-0.032 16.67691,-0.032 4.11911,0.0619 8.23817,-1.3e-4 12.35727,-1.3e-4 0.83344,0.24016 2.67996,-0.23863 3.51832,0 1.39947,0.39832 2.76957,0.89623 4.1339,1.40198 1.03322,0.38301 -2.05877,-0.82132 -3.14006,-1.03356 -0.47379,-0.093 -0.96153,0.0894 -1.4423,0.1341 1.59195,-0.56005 3.25968,-0.59057 4.92187,-0.49905 0,0 -0.93152,13.22074 -0.93152,13.22074 v 0 c -0.47944,-0.0919 1.19993,-0.30488 -0.0247,-0.0754 -3.5536,0.66623 -2.26329,0.79013 -6.60023,-0.56051 -1.00792,-0.31389 2.07651,0.40598 3.08312,0.72406 0.25166,0.0795 -0.52786,0 -0.7918,0 -0.90884,0 -1.81768,0 -2.72652,0 -4.1191,0 -8.23816,-0.0621 -12.35727,-1.3e-4 -5.55855,0 -11.11734,-0.0738 -16.67691,-0.032 0,0 0,-13.2483 0,-13.2483 z"
         id="path4422"
         style="color:#000000;overflow:visible;opacity:1;fill:#ffffff;fill-opacity:1;stroke:none;stroke-width:0.93749994;stroke-linejoin:round;stroke-miterlimit:4;stroke-dasharray:none;stroke-opacity:1;paint-order:markers stroke fill" />
      <path
         inkscape:connector-curvature="0"
         d="m 487.49874,607.02127 c 3.33732,0.59071 6.58958,0.10671 9.90182,-0.24739 1.47715,-0.15791 2.64868,-0.1837 4.0101,-0.64334 1.84347,-0.62532 3.71555,-0.15782 5.5755,-0.0806 1.79789,-0.20551 3.50797,0.59197 5.10283,1.31634 0.30829,0.14002 -0.79126,-0.21908 -0.8527,-0.55206 0,0 -0.0709,12.99321 -0.0709,12.99321 v 0 c -0.77518,-0.0491 -1.56152,-0.008 -2.32554,-0.1473 -0.89114,-0.16324 -1.74782,-0.47988 -2.6104,-0.75685 -0.14404,-0.0462 -0.55328,-0.21509 -0.40208,-0.21046 0.74793,0.0229 1.49612,0.11516 2.22897,0.26627 0.26228,0.0541 -0.53525,0.0186 -0.80289,0.0277 -1.05902,0.0447 -1.1495,0.0797 -2.26003,-0.0138 -0.33392,-0.0281 -0.66567,-0.0788 -0.99702,-0.12875 -0.0224,-0.004 -0.0832,-0.0279 -0.0607,-0.0308 0.27272,-0.0363 0.55131,-0.0233 0.82235,-0.0705 0.13504,-0.0235 0.25774,-0.0935 0.38661,-0.14015 -3.40664,0.97524 -6.36181,1.27093 -9.89668,1.53083 -1.46882,0.10799 -2.93865,0.24362 -4.41143,0.24729 -1.45492,0.004 -2.90598,-0.15034 -4.35896,-0.2255 0,0 1.02112,-13.13413 1.02112,-13.13413 z"
         id="path4424"
         style="color:#000000;overflow:visible;opacity:1;fill:#ffffff;fill-opacity:1;stroke:none;stroke-width:0.93749994;stroke-linejoin:round;stroke-miterlimit:4;stroke-dasharray:none;stroke-opacity:1;paint-order:markers stroke fill" />
      <path
         inkscape:connector-curvature="0"
         d="m 510.36704,641.16311 c -8.79727,1.69347 -17.75671,0.89467 -26.6373,0.95836 -3.80628,0.0273 -7.60635,0.31214 -11.40933,0.47296 -9.98535,0.35926 -19.97867,0.16038 -29.96664,0.047 -2.73419,-0.0133 -5.46138,0.0582 -8.19555,0.007 -1.92787,0.0135 -3.85494,0.0287 -5.78307,0.0305 -4.42712,-0.0405 -8.85524,-0.0579 -13.28274,-0.0578 -3.05933,-3e-4 -6.11866,-8.1e-4 -9.17798,-0.003 -2.41583,0.14937 -4.81139,0.54346 -7.21972,0.76091 -0.35133,0.0317 -0.77778,0.26699 -1.05705,0.0515 -2.33296,-1.8007 -3.664,-5.37369 -6.55821,-5.9293 -2.47625,-0.47539 3.36181,3.7589 5.04271,5.63835 -1.59402,0.16464 -2.82569,-0.16816 -4.46957,-0.4549 0,0 3.6709,-12.58845 3.6709,-12.58845 v 0 c -3.68743,-0.0606 2.12101,-0.0707 2.18797,-0.0614 2.21379,1.93594 5.16571,3.264 6.64139,5.80784 1.43591,2.47529 -4.25876,-3.83044 -6.51521,-5.59033 -0.15476,-0.12071 -0.78046,0.0815 -0.58652,0.0515 1.48879,-0.23073 2.98506,-0.41547 4.48397,-0.56731 1.45742,-0.14765 2.91956,-0.2444 4.37935,-0.3666 3.05925,-0.002 6.11849,-0.002 9.17774,-0.003 4.42706,-7e-5 8.8547,-0.0181 13.28139,-0.0568 1.93913,9.4e-4 3.8771,0.007 5.81595,0.0319 2.73585,-0.0386 5.46578,0.0168 8.20159,-0.0613 9.78629,-0.0529 19.57786,0.45304 29.36243,-0.0381 2.79219,-0.11901 9.40737,-0.43328 12.26047,-0.42982 7.87962,0.01 15.84097,0.70775 23.66827,-0.55185 0,0 2.68476,12.90182 2.68476,12.90182 z"
         id="path4426"
         style="color:#000000;overflow:visible;opacity:1;fill:#ffffff;fill-opacity:1;stroke:none;stroke-width:0.93749994;stroke-linejoin:round;stroke-miterlimit:4;stroke-dasharray:none;stroke-opacity:1;paint-order:markers stroke fill" />
      <path
         inkscape:connector-curvature="0"
         d="m 371.93577,643.14779 c -9.81731,1.46298 -19.72677,0.61173 -29.58957,0.41157 -0.95931,-0.48828 -2.35945,0.2484 -3.39871,0.0638 -1.15176,-0.20451 -2.29762,-0.44803 -3.43061,-0.73909 -0.72041,-0.18507 -1.31592,-0.6677 -0.65554,-0.1731 -0.83934,0.50022 -4.12512,0.28279 -5.14992,0.28525 0,0 -0.0158,-12.5615 -0.0158,-12.5615 v 0 c 2.40615,3.6e-4 4.79126,-0.2524 7.19268,-0.12065 0.82045,0.18869 1.64879,0.34584 2.46134,0.56606 0.24963,0.0677 0.97165,0.24787 0.71744,0.29552 -0.58332,0.10934 -1.19005,-0.0144 -1.77779,-0.0968 -0.26329,-0.0368 0.5309,-0.0305 0.79656,-0.0407 1.61683,-0.0624 1.5581,-0.039 3.51765,-0.0378 9.07033,0.18754 18.17766,0.78092 27.19725,-0.58491 0,0 2.13498,12.73223 2.13498,12.73223 z"
         id="path4428"
         style="color:#000000;overflow:visible;opacity:1;fill:#ffffff;fill-opacity:1;stroke:none;stroke-width:0.93749994;stroke-linejoin:round;stroke-miterlimit:4;stroke-dasharray:none;stroke-opacity:1;paint-order:markers stroke fill" />
      <path
         inkscape:connector-curvature="0"
         d="m 333.99171,652.23337 c 3.86418,0.89612 7.80635,1.66559 11.79212,1.62967 1.32193,-0.0119 2.62357,-0.38222 3.94538,-0.40339 1.21885,-0.0195 2.43607,0.0975 3.6541,0.14624 2.42963,0.29564 4.87293,0.52356 7.32332,0.49748 0.64479,-0.007 1.28838,-0.10761 1.93273,-0.0827 0.89671,0.0347 4.88107,0.43323 6.02561,0.54462 -4.08632,0.4138 2.96586,0.0268 2.23024,0.14457 -0.29029,0.0464 -1.16773,0.10566 -0.88102,0.0407 0.50433,-0.11426 1.03117,-0.0959 1.53966,-0.18993 1.1099,-0.20519 2.17598,-0.60102 3.26723,-0.88941 -2.35516,1.27479 6.14082,-1.91145 4.87427,-0.85464 -0.94394,0.78763 -2.27635,0.92938 -3.41452,1.39407 0,0 8.65398,9.71586 8.65398,9.71586 v 0 c -1.30236,0.61093 -2.56637,1.31138 -3.90708,1.83279 -0.93449,0.36344 -2.19018,-0.82426 -2.97679,0.43236 -3.66355,0.92579 -7.03119,1.73745 -10.82243,1.16883 -1.44818,-0.18561 -2.88665,-0.47745 -4.34451,-0.55701 -0.83041,-0.0453 -1.66339,0.0155 -2.49493,0.002 -2.61022,-0.0419 -5.23188,-0.15874 -7.80277,-0.64651 -0.56154,-0.0642 -1.11949,-0.20142 -1.68462,-0.19273 -5.80814,0.0892 0.26122,0.47706 -5.71534,0.44401 -4.95115,-0.0274 -9.85043,-0.94303 -14.64596,-2.09889 0,0 3.45133,-12.07809 3.45133,-12.07809 z"
         id="path4430"
         style="color:#000000;overflow:visible;opacity:1;fill:#ffffff;fill-opacity:1;stroke:none;stroke-width:0.93749994;stroke-linejoin:round;stroke-miterlimit:4;stroke-dasharray:none;stroke-opacity:1;paint-order:markers stroke fill" />
      <path
         inkscape:connector-curvature="0"
         d="m 400.99521,653.20153 c 8.12046,-0.0778 16.24281,7.6e-4 24.36287,-0.11468 1.32587,-0.0223 2.68181,0.14201 4.00398,0.0326 0.57356,-0.0474 1.12925,-0.22591 1.69895,-0.30752 1.47262,-0.21098 2.95454,-0.35098 4.43165,-0.52789 -2.43139,0.48289 -1.15568,-0.0107 -3.64797,1.87934 0,0 10.4522,8.38354 10.4522,8.38354 v 0 c -3.26866,2.74227 -1.45156,1.73137 -5.43281,3.06571 -3.83741,0.31436 -7.63561,1.08804 -11.506,0.89196 -8.12006,-0.11543 -16.24241,-0.0368 -24.36287,-0.11467 0,0 0,-13.18836 0,-13.18836 z"
         id="path4432"
         style="color:#000000;overflow:visible;opacity:1;fill:#ffffff;fill-opacity:1;stroke:none;stroke-width:0.93749994;stroke-linejoin:round;stroke-miterlimit:4;stroke-dasharray:none;stroke-opacity:1;paint-order:markers stroke fill" />
      <path
         inkscape:connector-curvature="0"
         d="m 474.89369,650.43911 c 4.4366,0.28174 2.79916,0.31343 7.40728,0.0287 1.40282,-0.0867 2.81073,-0.12974 4.20571,-0.30138 1.60845,-0.1979 3.26233,-0.72603 4.85904,-1.0562 2.57847,0.0841 5.13377,0.35553 7.715,0.24349 0.83688,0.006 0.4045,0.008 1.29712,-0.008 0,0 0.18881,13.30456 0.18881,13.30456 v 0 c -0.5347,0.004 -0.22094,-0.007 -0.94017,0.0563 -2.04186,0.0799 -4.05424,0.0821 -6.09105,-0.11311 -0.4821,-0.0462 -1.41479,0.31647 -1.44331,-0.167 -0.0281,-0.47617 0.95264,-0.0508 1.42895,-0.0762 -0.86831,-0.16152 0.22666,0.0189 -2.17662,0.49269 -1.26423,0.24924 -2.53493,0.47484 -3.81443,0.62736 -4.62942,0.55184 -9.36003,0.81328 -14.00453,0.33443 0,0 1.3682,-13.36507 1.3682,-13.36507 z"
         id="path4434"
         style="color:#000000;overflow:visible;opacity:1;fill:#ffffff;fill-opacity:1;stroke:none;stroke-width:0.93749994;stroke-linejoin:round;stroke-miterlimit:4;stroke-dasharray:none;stroke-opacity:1;paint-order:markers stroke fill" />
      <path
         inkscape:connector-curvature="0"
         d="m 506.72801,687.76844 c -2.52039,0.1331 -5.04157,0.25225 -7.56118,0.39929 -0.29784,0.0173 -12.4052,0.80366 -13.6201,0.8457 -5.96177,0.20633 -11.93089,9.4e-4 -17.89216,-0.1037 -2.36155,0.29735 -5.04485,-0.6489 -7.38578,0.15781 -0.20125,0.0694 -0.35143,0.24031 -0.52713,0.36047 -1.58894,0.29639 -3.16502,0.67263 -4.76679,0.88918 -1.13694,0.15372 -2.28989,0.14643 -3.43484,0.21965 -0.76025,-0.0301 -1.53055,0.0367 -2.28073,-0.0901 -0.96667,-0.16355 -2.18052,-0.0476 -2.83706,-0.77576 -1.71566,-1.90269 -6.35703,-7.20814 -3.85703,-6.64807 4.96299,7.3234 1.90892,6.39191 6.42597,7.10365 0,0 -0.62307,-13.44056 -0.62307,-13.44056 v 0 c 9.42979,0.81307 -9.44076,-1.52471 7.68232,7.14602 2.22033,1.12432 -2.23362,-4.51064 -3.87292,-6.38325 -0.46669,-0.53311 -1.39226,-0.26523 -2.08347,-0.42092 -0.20182,-0.0455 0.40937,0.06 0.61405,0.09 0.31626,-0.0187 3.9051,-0.21341 4.27942,-0.29998 1.1063,-0.25587 2.13079,-0.806 3.23778,-1.05893 3.23987,-0.74026 6.46758,-0.33938 9.75001,-0.35063 5.60172,0.16837 11.19791,0.33954 16.80259,0.15052 4.29951,-0.14501 9.54324,-0.61273 13.73926,-0.84911 2.15929,-0.12164 4.32143,-0.18575 6.48214,-0.27863 0,0 1.72872,13.33743 1.72872,13.33743 z"
         id="path4436"
         style="color:#000000;overflow:visible;opacity:1;fill:#ffffff;fill-opacity:1;stroke:none;stroke-width:0.93749994;stroke-linejoin:round;stroke-miterlimit:4;stroke-dasharray:none;stroke-opacity:1;paint-order:markers stroke fill" />
      <path
         inkscape:connector-curvature="0"
         d="m 424.32658,690.34163 c -12.7468,0.74671 -25.51403,0.23544 -38.26909,0.11634 -7.32761,2.2e-4 -14.65478,-0.0908 -21.98206,-0.12277 -4.43274,-0.0977 -8.86753,-0.071 -13.30119,-0.0686 -3.64336,0.39655 -6.92934,-1.56739 -10.5017,-1.7192 -0.44505,0.0346 -0.89049,0.0643 -1.33515,0.10365 -2.80985,0.24829 -0.38115,0.0455 -2.48836,0.26099 -0.24836,0.0254 -0.98712,0.1289 -0.74629,0.0631 0.52132,-0.14235 2.02497,-0.62099 1.59421,-0.29468 -0.59504,0.45078 -1.41847,0.46588 -2.1277,0.69883 -1.61201,0.74262 -3.32113,0.83835 -5.04329,1.10726 -0.15259,0.0238 -0.28942,0.10971 -0.439,0.14815 -0.91851,0.236 -1.23891,0.25029 -2.23968,0.39479 1.69026,-0.003 -3.47921,0.0907 -2.62316,-0.09 6.44004,-1.35904 1.32347,0.3654 0.4092,0.61708 -0.29787,0.082 -0.60818,0.10917 -0.91227,0.16376 0,0 -1.54867,-12.46569 -1.54867,-12.46569 v 0 c -0.21527,0.0436 -0.43757,0.0608 -0.64582,0.13066 -0.17015,0.057 -0.64587,0.31155 -0.47872,0.24625 0.2337,-0.0913 0.43543,-0.2649 0.67914,-0.32453 3.78422,-0.92602 5.42482,-1.01108 3.58828,-0.74527 0.50073,0.0446 -0.003,0.0129 1.186,-0.21957 1.74819,-0.34181 3.00213,-0.32344 4.69964,-1.06438 0.0359,1.12325 -0.0325,0.044 2.90469,-0.82454 0.50343,-0.14886 1.04398,-0.11194 1.56648,-0.16277 2.75683,-0.26823 1.95483,-0.1863 5.09326,-0.25702 2.8674,0.30434 2.75561,0.18378 5.62463,0.94886 0.51118,0.13632 1.00822,0.32289 1.50199,0.51285 0.13392,0.0515 0.23403,0.18873 0.37599,0.2096 0.002,3.3e-4 1.77556,2.7e-4 1.89956,2.7e-4 4.44259,-0.003 8.88588,0.0153 13.32786,-0.0614 7.35127,-0.009 14.7011,-0.18738 22.05236,-0.19648 12.11434,0.0552 24.23926,0.27183 36.34313,-0.34235 0,0 1.83573,13.23683 1.83573,13.23683 z"
         id="path4438"
         style="color:#000000;overflow:visible;opacity:1;fill:#ffffff;fill-opacity:1;stroke:none;stroke-width:0.93749994;stroke-linejoin:round;stroke-miterlimit:4;stroke-dasharray:none;stroke-opacity:1;paint-order:markers stroke fill" />
    </g>
  </g>
</svg>
